<svg version="1.2" xmlns="http://www.w3.org/2000/svg" viewBox="0 0 1640 664" width="1640" height="664"><style></style><path  d="m163 310v56h-16v-12l-12 12h-42q-5.6 0-9.8-4.2-4.2-4.2-4.2-9.8v-70q0-5.6 4.2-9.8 4.2-4.2 9.8-4.2h70v14h-68v70h52v-28h-26l14-14zm101 28v28h-70v-98h16v84h38v-14zm103-56v70q0 5.8-4.2 10-4 4-9.8 4h-56q-5.8 0-10-4-4-4.2-4-10v-70q0-5.8 4-9.8 4.2-4.2 10-4.2h56q5.8 0 9.8 4.2 4.2 4 4.2 9.8zm-68 70h52v-70h-52zm187-28v28q0 5.8-4.2 10-4 4-9.8 4h-70v-70l14-14h-14v-14h56q5.8 0 9.8 4.2 4.2 4 4.2 9.8v28h0.4q5.8 0 9.6 4.2 4 4 4 9.8zm-56-14h26v-28h-38v40zm-12 42h52v-28h-52zm184-84v98h-16v-28h-52v28h-16v-84q0-5.8 4-9.8 4.2-4.2 10-4.2zm-56 56h40v-42h-52v54zm162 14v28h-70v-98h16v84h38v-14zm143 0v14q0 5.8-4.2 10-4 4-9.8 4h-56q-5.8 0-10-4-4-4.2-4-10v-70q0-5.8 4-9.8 4.2-4.2 10-4.2h56q5.8 0 9.8 4.2 4.2 4 4.2 9.8v14h-16v-14h-52v70h52v-14zm114-70v98h-16v-42h-52v42h-16v-98h16v54l12-12h40v-42zm120 0v98h-16v-28h-52v28h-16v-84q0-5.8 4-9.8 4.2-4.2 10-4.2zm-56 56h40v-42h-52v54zm149-56v14h-29v84h-16v-84h-29v-14zm143 0v98h-16v-42h-52v42h-16v-98h16v54l12-12h40v-42zm120 0v98h-16v-12l-12 12h-42q-5.8 0-10-4-4-4.2-4-10v-84h16v84h52v-84zm120 56v28q0 5.8-4.2 10-4 4-9.8 4h-70v-70l14-14h-14v-14h56q5.8 0 9.8 4.2 4.2 4 4.2 9.8v28h0.4q5.8 0 9.6 4.2 4 4 4 9.8zm-56-14h26v-28h-38v40zm-12 42h52v-28h-52z"/></svg>